# xmcd CD database file
#
# Track frame offsets:
#	150
#	97387
#	160931
#
# Disc length: 3336 seconds
#
# Revision: 1
# Processed by: cddbd v1.5.2PL0 Copyright (c) Steve Scherf et al.
# Submitted via: CDex 1.70beta2
#
DISCID=220d0603
DTITLE=Lise Bourbeau - Rire pour guérir - CD4
DYEAR=2006
DGENRE=New Age
TTITLE0=Piste 01
TTITLE1=Piste 02
TTITLE2=Piste 03
EXTD=YEAR: 2006
EXTT0=
EXTT1=
EXTT2=
PLAYORDER=
